<?xml version="1.0" standalone="no"?>
<!DOCTYPE svg PUBLIC "-//W3C//DTD SVG 20010904//EN"
 "http://www.w3.org/TR/2001/REC-SVG-20010904/DTD/svg10.dtd">
<svg version="1.0" xmlns="http://www.w3.org/2000/svg"
 width="512.000000pt" height="180.000000pt" viewBox="0 0 512.000000 180.000000"
 preserveAspectRatio="xMidYMid meet">

<g transform="translate(0.000000,180.000000) scale(0.100000,-0.100000)"
fill="#000000" stroke="none">
<path d="M1129 1686 c-36 -25 -69 -85 -69 -126 0 -19 -7 -20 -95 -20 -402 0
-796 -181 -912 -418 -26 -54 -28 -64 -28 -202 0 -140 1 -147 29 -204 68 -139
246 -269 472 -344 137 -46 234 -63 390 -69 l142 -6 6 -36 c8 -50 39 -97 78
-117 37 -20 162 -30 233 -20 66 10 120 64 130 129 l7 47 1068 0 1067 0 7 -37
c8 -52 39 -99 78 -120 26 -14 56 -18 150 -18 102 0 120 3 144 21 43 31 65 67
71 112 l6 42 71 0 c377 0 780 188 892 415 28 58 29 65 29 205 0 139 -1 148
-28 202 -64 131 -213 247 -418 328 -124 49 -338 90 -473 90 l-73 0 -6 40 c-7
51 -29 85 -70 110 -27 17 -51 20 -151 20 -103 0 -123 -3 -153 -21 -37 -23 -58
-57 -68 -112 l-7 -37 -1068 0 -1068 0 -6 44 c-4 25 -16 56 -27 70 -37 47 -68
56 -196 56 -109 0 -121 -2 -154 -24z m3301 -233 c311 -79 494 -189 581 -353
22 -41 24 -57 24 -180 0 -130 -1 -137 -28 -186 -85 -154 -303 -285 -577 -347
l-95 -22 -1770 0 c-1671 0 -1775 1 -1855 18 -229 49 -414 140 -526 259 -90 94
-99 121 -99 278 0 128 2 138 27 187 63 119 222 234 411 298 74 24 204 56 269
64 35 5 848 8 1808 7 l1745 -2 85 -21z"/>
<path d="M475 1186 c-42 -18 -93 -79 -100 -118 -3 -18 -5 -121 -3 -228 l3
-195 60 0 60 0 3 194 c2 164 5 198 19 213 9 10 21 18 28 18 7 0 19 -8 28 -18
14 -15 17 -49 19 -213 l3 -194 60 0 60 0 5 203 c5 207 8 221 45 222 31 0 35
-26 35 -211 0 -103 3 -194 6 -203 5 -12 20 -16 64 -16 66 0 70 5 70 100 l0 55
19 -30 c47 -78 135 -125 236 -125 101 0 189 47 236 125 l19 30 0 -55 c0 -96 4
-100 71 -100 71 0 68 -9 71 190 3 132 5 148 26 177 28 40 98 68 146 59 41 -8
93 -48 109 -85 6 -14 14 -96 17 -181 l5 -155 60 0 60 0 6 75 c3 41 6 70 7 63
4 -24 94 -104 138 -123 53 -23 167 -27 211 -8 55 24 102 60 130 101 l28 41 5
-75 5 -74 60 0 60 0 3 102 3 101 157 4 c144 3 160 5 189 26 17 12 34 22 37 22
3 0 7 -57 8 -127 l3 -128 60 0 60 0 3 63 3 62 149 0 150 0 0 -49 c0 -75 4 -81
64 -81 29 0 57 5 64 12 18 18 16 259 -2 328 -8 30 -18 63 -22 73 -6 16 0 18
72 15 l79 -3 5 -210 5 -210 60 0 60 0 5 210 5 210 93 3 92 3 0 -200 c0 -110 3
-206 6 -215 9 -24 229 -24 238 0 3 9 6 79 6 156 0 158 11 197 64 229 81 49
169 26 215 -56 12 -23 17 -67 21 -185 l5 -155 60 0 60 0 0 175 c0 171 -1 176
-27 226 -96 182 -352 206 -474 45 l-34 -44 0 65 c0 42 -5 70 -13 76 -19 16
-635 16 -653 1 -8 -6 -14 -20 -14 -30 0 -24 2 -24 -56 9 -43 24 -60 27 -134
27 -74 0 -91 -3 -131 -27 -25 -15 -60 -43 -77 -62 l-31 -36 -17 36 c-9 19 -33
47 -52 62 l-35 27 -226 0 -226 0 -3 -73 -3 -73 -46 51 c-68 76 -110 95 -213
95 -68 0 -93 -5 -125 -22 -48 -26 -106 -85 -130 -132 l-17 -35 -13 31 c-19 44
-72 100 -124 131 -40 24 -57 27 -131 27 -75 0 -91 -3 -138 -29 -55 -31 -104
-83 -122 -131 l-11 -28 -32 54 c-36 60 -104 112 -170 130 -102 27 -232 -17
-292 -99 -16 -22 -33 -41 -36 -41 -4 -1 -9 13 -13 31 -8 42 -76 105 -121 114
-41 7 -113 -2 -132 -18 -9 -7 -24 -6 -53 6 -48 19 -104 20 -145 2z m154 -44
c24 -17 26 -17 70 7 62 32 110 24 163 -29 l38 -38 0 -206 0 -206 -30 0 -30 0
0 189 c0 175 -1 190 -21 215 -26 33 -75 35 -107 6 -21 -20 -22 -28 -22 -215
l0 -195 -35 0 -35 0 0 195 c0 182 -1 196 -20 215 -27 27 -81 26 -106 -1 -17
-19 -19 -41 -22 -215 l-3 -194 -30 0 -30 0 3 209 c3 208 3 210 28 236 52 56
133 68 189 27z m680 -1 c49 -26 105 -89 122 -137 51 -153 -50 -312 -209 -331
-189 -22 -332 183 -246 355 62 124 212 174 333 113z m538 3 c43 -21 96 -74
119 -120 16 -32 19 -66 22 -196 l4 -158 -36 0 -36 0 0 144 c0 155 -6 185 -48
230 -68 72 -183 76 -256 8 -48 -46 -56 -77 -56 -237 l0 -145 -35 0 -35 0 0
144 c0 191 22 252 112 311 69 46 170 54 245 19z m552 -7 c164 -85 174 -319 18
-424 -83 -56 -176 -56 -268 0 -74 45 -113 116 -113 206 1 189 195 305 363 218z
m584 19 c101 -43 118 -181 29 -241 -35 -24 -42 -25 -204 -25 l-168 0 0 -110 0
-110 -35 0 -35 0 0 243 c0 134 3 247 7 250 3 4 89 7 190 7 133 0 192 -4 216
-14z m436 -2 c67 -19 141 -90 159 -150 7 -24 12 -101 12 -188 l0 -146 -30 0
-30 0 0 65 0 65 -185 0 -185 0 0 -66 0 -65 -32 3 -33 3 0 150 c1 134 3 155 23
195 30 63 81 109 144 131 66 23 90 23 157 3z m641 -19 l0 -35 -105 0 -105 0 0
-215 0 -215 -35 0 -35 0 0 215 0 215 -105 0 -105 0 0 35 0 35 245 0 245 0 0
-35z m115 -215 l0 -245 -32 -3 -33 -3 0 251 0 251 33 -3 32 -3 0 -245z m400
224 c43 -20 92 -69 118 -118 18 -36 22 -62 25 -198 l4 -158 -35 0 -36 0 -3
159 -3 159 -31 39 c-70 88 -189 99 -267 25 -52 -49 -57 -69 -57 -232 l0 -150
-35 0 -35 0 0 143 c0 78 4 157 10 176 21 75 93 146 171 170 43 13 132 5 174
-15z"/>
<path d="M1108 1077 c-72 -44 -105 -118 -87 -198 13 -56 35 -86 86 -116 37
-21 53 -25 102 -21 162 12 229 204 109 315 -52 49 -148 58 -210 20z m156 -30
c127 -72 89 -259 -55 -274 -158 -16 -222 202 -82 276 50 26 89 26 137 -2z"/>
<path d="M2201 1082 c-59 -29 -94 -84 -98 -150 -7 -102 61 -182 161 -190 150
-12 248 138 175 268 -46 81 -156 114 -238 72z m158 -40 c98 -72 91 -201 -14
-252 -146 -71 -281 98 -178 221 51 60 135 74 192 31z"/>
<path d="M2640 1024 l0 -75 161 3 161 3 24 28 c31 36 30 62 -1 92 -24 24 -28
25 -185 25 l-160 0 0 -76z m311 36 c10 -6 19 -19 19 -28 0 -37 -20 -42 -162
-42 l-138 0 0 33 c0 19 3 37 7 40 11 11 253 8 274 -3z"/>
<path d="M3265 1083 c-67 -35 -104 -96 -105 -170 l0 -43 186 0 187 0 -6 56
c-11 105 -84 174 -184 174 -26 -1 -61 -8 -78 -17z m135 -29 c48 -20 80 -61 87
-114 l6 -40 -146 0 c-84 0 -148 4 -152 10 -11 18 14 86 42 112 51 49 98 58
163 32z"/>
</g>
</svg>
